<?xml version="1.0" encoding="us-ascii" standalone="no"?><svg xmlns="http://www.w3.org/2000/svg" xmlns:xlink="http://www.w3.org/1999/xlink" contentStyleType="text/css" height="693.5936px" preserveAspectRatio="none" style="width:500px;height:693px;background:#FFFFFF;" version="1.1" viewBox="0 0 500 693" width="500.4672px" zoomAndPan="magnify"><defs/><g><ellipse cx="181.2377" cy="16.613" fill="#222222" rx="10.3831" ry="10.3831" style="stroke:none;stroke-width:1.0383137784238397;"/><g id="Created"><rect fill="#F1F1F1" height="51.9157" rx="12.9789" ry="12.9789" style="stroke:#181818;stroke-width:0.5191568892119198;" width="73.7203" x="144.3775" y="126.6743"/><line style="stroke:#181818;stroke-width:0.5191568892119198;" x1="144.3775" x2="218.0978" y1="156.392" y2="156.392"/><text fill="#000000" font-family="sans-serif" font-size="14.5364" lengthAdjust="spacing" textLength="52.954" x="154.7607" y="147.5521">Created</text></g><g id="Edited"><rect fill="#F1F1F1" height="51.9157" rx="12.9789" ry="12.9789" style="stroke:#181818;stroke-width:0.5191568892119198;" width="62.2988" x="150.0883" y="278.2681"/><line style="stroke:#181818;stroke-width:0.5191568892119198;" x1="150.0883" x2="212.3871" y1="307.9858" y2="307.9858"/><text fill="#000000" font-family="sans-serif" font-size="14.5364" lengthAdjust="spacing" textLength="41.5326" x="160.4714" y="299.1459">Edited</text></g><g id="Published"><rect fill="#F1F1F1" height="51.9157" rx="12.9789" ry="12.9789" style="stroke:#181818;stroke-width:0.5191568892119198;" width="85.1417" x="324.525" y="429.8619"/><line style="stroke:#181818;stroke-width:0.5191568892119198;" x1="324.525" x2="409.6667" y1="459.5796" y2="459.5796"/><text fill="#000000" font-family="sans-serif" font-size="14.5364" lengthAdjust="spacing" textLength="64.3755" x="334.9081" y="450.7397">Published</text></g><g id="Cancelled"><rect fill="#F1F1F1" height="51.9157" rx="12.9789" ry="12.9789" style="stroke:#181818;stroke-width:0.5191568892119198;" width="86.18" x="77.9254" y="635.448"/><line style="stroke:#181818;stroke-width:0.5191568892119198;" x1="77.9254" x2="164.1055" y1="665.1657" y2="665.1657"/><text fill="#000000" font-family="sans-serif" font-size="14.5364" lengthAdjust="spacing" textLength="65.4138" x="88.3086" y="656.3258">Cancelled</text></g><g id="Resolved"><rect fill="#F1F1F1" height="51.9157" rx="12.9789" ry="12.9789" style="stroke:#181818;stroke-width:0.5191568892119198;" width="82.0268" x="367.615" y="635.448"/><line style="stroke:#181818;stroke-width:0.5191568892119198;" x1="367.615" x2="449.6418" y1="665.1657" y2="665.1657"/><text fill="#000000" font-family="sans-serif" font-size="14.5364" lengthAdjust="spacing" textLength="61.2605" x="377.9981" y="656.3258">Resolved</text></g><!--link *start* to Created--><g id="link_*start*_Created"><path d="M181.2377,27.2869 C181.2377,46.6514 181.2377,91.0394 181.2377,121.1712 " fill="none" id="*start*-to-Created" style="stroke:#181818;stroke-width:1.0383137784238397;"/><polygon fill="#181818" points="181.2377,126.6327,185.3909,117.2879,181.2377,121.4412,177.0844,117.2879,181.2377,126.6327" style="stroke:#181818;stroke-width:1.0383137784238397;"/><text fill="#000000" font-family="sans-serif" font-size="13.4981" lengthAdjust="spacing" textLength="62.2988" x="182.276" y="73.7497">Inzer&#225;t byl</text><text fill="#000000" font-family="sans-serif" font-size="13.4981" lengthAdjust="spacing" textLength="47.7624" x="191.6208" y="91.7032">vytvo&#345;en</text></g><!--link Created to Edited--><g id="link_Created_Edited"><path d="M181.2377,178.6938 C181.2377,204.5686 181.2377,244.9901 181.2377,272.7131 " fill="none" id="Created-to-Edited" style="stroke:#181818;stroke-width:1.0383137784238397;"/><polygon fill="#181818" points="181.2377,278.0812,185.3909,268.7364,181.2377,272.8896,177.0844,268.7364,181.2377,278.0812" style="stroke:#181818;stroke-width:1.0383137784238397;"/><text fill="#000000" font-family="sans-serif" font-size="13.4981" lengthAdjust="spacing" textLength="93.4482" x="185.9101" y="225.3435">Inzer&#225;t editov&#225;n</text><text fill="#000000" font-family="sans-serif" font-size="13.4981" lengthAdjust="spacing" textLength="100.7164" x="182.276" y="243.297">p&#345;ed zve&#345;ejn&#283;n&#237;m</text></g><!--link Created to Published--><g id="link_Created_Published"><path d="M218.3885,166.3586 C241.6156,175.6619 271.0622,190.1049 292.3372,209.7394 C350.3167,263.2541 363.4202,285.3598 384.7472,361.3332 C390.5825,382.1099 385.8582,406.0326 379.8359,424.4731 " fill="none" id="Created-to-Published" style="stroke:#181818;stroke-width:1.0383137784238397;"/><polygon fill="#181818" points="378.1123,429.5193,385.0823,422.0362,379.8029,424.6107,377.2285,419.3313,378.1123,429.5193" style="stroke:#181818;stroke-width:1.0383137784238397;"/><text fill="#000000" font-family="sans-serif" font-size="13.4981" lengthAdjust="spacing" textLength="107.9846" x="375.4023" y="301.1404">Inzer&#225;t zve&#345;ejn&#283;n&#253;</text><text fill="#000000" font-family="sans-serif" font-size="13.4981" lengthAdjust="spacing" textLength="96.5632" x="381.1131" y="319.0939">administr&#225;torem</text></g><!--link Edited to Published--><g id="link_Edited_Published"><path d="M172.3186,330.5576 C166.8363,351.0435 163.3579,379.5556 178.1227,398.7125 C211.3384,441.7921 244.4917,413.8719 296.4905,429.8619 C303.8625,432.1254 311.6083,434.6797 319.1569,437.2651 " fill="none" id="Edited-to-Published" style="stroke:#181818;stroke-width:1.0383137784238397;"/><polygon fill="#181818" points="324.3485,439.0614,316.8654,432.0915,319.4399,437.3708,314.1605,439.9452,324.3485,439.0614" style="stroke:#181818;stroke-width:1.0383137784238397;"/><text fill="#000000" font-family="sans-serif" font-size="13.4981" lengthAdjust="spacing" textLength="107.9846" x="179.161" y="376.9373">Inzer&#225;t zve&#345;ejn&#283;n&#253;</text><text fill="#000000" font-family="sans-serif" font-size="13.4981" lengthAdjust="spacing" textLength="96.5632" x="184.8718" y="394.8908">administr&#225;torem</text></g><!--link Published to Edited--><g id="link_Published_Edited"><path d="M351.4277,429.675 C337.7531,409.2929 316.3742,380.8431 292.3372,361.3332 C269.8785,343.1108 240.5254,328.6055 217.6306,318.9285 " fill="none" id="Published-to-Edited" style="stroke:#181818;stroke-width:1.0383137784238397;"/><polygon fill="#181818" points="212.5532,316.8103,219.5736,324.246,217.3432,318.8123,222.7769,316.5819,212.5532,316.8103" style="stroke:#181818;stroke-width:1.0383137784238397;"/><text fill="#000000" font-family="sans-serif" font-size="13.4981" lengthAdjust="spacing" textLength="40.4942" x="331.7932" y="376.9373">Inzer&#225;t</text><text fill="#000000" font-family="sans-serif" font-size="13.4981" lengthAdjust="spacing" textLength="48.8007" x="327.6399" y="394.8908">editov&#225;n</text></g><!--link Created to Cancelled--><g id="link_Created_Cancelled"><path d="M156.0066,178.6834 C121.2647,215.0971 60.3468,286.5538 36.9121,361.3332 C6.2299,459.2462 67.6046,576.7937 101.1525,630.7029 " fill="none" id="Created-to-Cancelled" style="stroke:#181818;stroke-width:1.0383137784238397;"/><polygon fill="#181818" points="104.1117,635.4065,102.6564,625.2844,101.3495,631.0107,95.6232,629.7039,104.1117,635.4065" style="stroke:#181818;stroke-width:1.0383137784238397;"/><text fill="#000000" font-family="sans-serif" font-size="13.4981" lengthAdjust="spacing" textLength="95.5249" x="37.9504" y="376.9373">Inzer&#225;t ozna&#269;en</text><text fill="#000000" font-family="sans-serif" font-size="13.4981" lengthAdjust="spacing" textLength="82.0268" x="46.776" y="394.8908">za zve&#345;ejn&#283;n&#253;</text></g><!--link Edited to Cancelled--><g id="link_Edited_Cancelled"><path d="M170.9791,330.2045 C167.1581,339.8609 162.9114,351.0435 159.4331,361.3332 C149.2991,391.3612 145.3951,398.6813 139.7051,429.8619 C126.747,500.8307 122.7702,585.744 121.5554,630.0592 " fill="none" id="Edited-to-Cancelled" style="stroke:#181818;stroke-width:1.0383137784238397;"/><polygon fill="#181818" points="121.4204,635.2508,125.8125,626.0158,121.5539,630.0609,117.5087,625.8023,121.4204,635.2508" style="stroke:#181818;stroke-width:1.0383137784238397;"/><text fill="#000000" font-family="sans-serif" font-size="13.4981" lengthAdjust="spacing" textLength="165.0919" x="140.7434" y="452.7342">Koordin&#225;tor &#269;i administr&#225;tor</text><text fill="#000000" font-family="sans-serif" font-size="13.4981" lengthAdjust="spacing" textLength="95.5249" x="175.5269" y="470.6877">inzer&#225;t zam&#237;tnul</text></g><!--link Published to Resolved--><g id="link_Published_Resolved"><path d="M372.1836,481.8087 C379.8152,519.188 394.1958,589.6376 402.4193,629.9657 " fill="none" id="Published-to-Resolved" style="stroke:#181818;stroke-width:1.0383137784238397;"/><polygon fill="#181818" points="403.4887,635.2092,405.6895,625.2226,402.4506,630.1225,397.5508,626.8836,403.4887,635.2092" style="stroke:#181818;stroke-width:1.0383137784238397;"/><text fill="#000000" font-family="sans-serif" font-size="13.4981" lengthAdjust="spacing" textLength="95.5249" x="397.2069" y="555.5273">Inzer&#225;t ozna&#269;en</text><text fill="#000000" font-family="sans-serif" font-size="13.4981" lengthAdjust="spacing" textLength="64.3755" x="412.7816" y="573.4808">za vy&#345;e&#353;n&#253;</text></g><!--link Published to Cancelled--><g id="link_Published_Cancelled"><path d="M324.3173,472.4847 C315.1698,475.6723 305.5446,478.9222 296.4905,481.7776 C247.1498,497.3212 223.3101,478.9015 184.3526,512.927 C175.0182,521.0882 148.0428,589.1808 132.4681,629.9242 " fill="none" id="Published-to-Cancelled" style="stroke:#181818;stroke-width:1.0383137784238397;"/><polygon fill="#181818" points="130.4434,635.2404,137.6595,627.9945,132.2971,630.391,129.9006,625.0286,130.4434,635.2404" style="stroke:#181818;stroke-width:1.0383137784238397;"/><text fill="#000000" font-family="sans-serif" font-size="13.4981" lengthAdjust="spacing" textLength="183.7815" x="185.3909" y="528.5311">Inzer&#225;tu se nepoda&#345;ilo vyhov&#283;t,</text><text fill="#000000" font-family="sans-serif" font-size="13.4981" lengthAdjust="spacing" textLength="96.5632" x="229.0001" y="546.4846">byl proto zru&#353;en</text><text fill="#000000" font-family="sans-serif" font-size="13.4981" lengthAdjust="spacing" textLength="70.6053" x="241.979" y="564.4381">inzerentem,</text><text fill="#000000" font-family="sans-serif" font-size="13.4981" lengthAdjust="spacing" textLength="85.1417" x="234.7108" y="582.3916">koordin&#225;torem</text><text fill="#000000" font-family="sans-serif" font-size="13.4981" lengthAdjust="spacing" textLength="111.0996" x="221.7319" y="600.3451">&#269;i administr&#225;torem</text></g><!--SRC=[dP8nJWCn44Lxds8w94H86feKD8W2qI1QJE748zPWZrUsroXxXnmWIhK7o16eTlTUU2C8woGLbINF_pFlstDHX53w-NHQQa6XClfwQStK1n5m8fLuSy8mvfT28zpCPl2fP2ZOo-KhJ2QtSESmwIJCuO5gT6qJOB7Im2ckGhJz1edzIWRvlLH7QamtDhODSIgJN48TCPtlr6sftPdC_LGjjF95tc2i_-8af56aV1Xgrg5XFoF_xJy0fB22bgXrxhSrYMwDb3BN8kysdZtsFbhhfABz1EZM2lAXdDG1JfXs5wZIx8zzwFQCtkfu7cJF4LS9esy6YDnvBaC57e6mj5Bq6wLjSXSsTjjmnMdupTBPOA5sLTyCxVTqI05Dgd-Cig3XT1edlM6ESB84d0vRmDWt]--></g></svg>