<?xml version="1.0" encoding="us-ascii" standalone="no"?><svg xmlns="http://www.w3.org/2000/svg" xmlns:xlink="http://www.w3.org/1999/xlink" contentStyleType="text/css" height="364.1618px" preserveAspectRatio="none" style="width:600px;height:364px;background:#FFFFFF;" version="1.1" viewBox="0 0 600 364" width="600.8671px" zoomAndPan="magnify"><defs/><g><g id="waitForConfirmation"><rect fill="#F1F1F1" height="43.3526" rx="10.8382" ry="10.8382" style="stroke:#181818;stroke-width:0.43352601156069365;" width="199.422" x="6.0694" y="174.2775"/><line style="stroke:#181818;stroke-width:0.43352601156069365;" x1="6.0694" x2="205.4913" y1="199.0934" y2="199.0934"/><text fill="#000000" font-family="sans-serif" font-size="12.1387" lengthAdjust="spacing" textLength="182.0809" x="14.7399" y="191.7116">Waiting For Contact Confirmation</text></g><g id="waitingForResolve"><rect fill="#F1F1F1" height="43.3526" rx="10.8382" ry="10.8382" style="stroke:#181818;stroke-width:0.43352601156069365;" width="128.3237" x="335.5491" y="174.2775"/><line style="stroke:#181818;stroke-width:0.43352601156069365;" x1="335.5491" x2="463.8728" y1="199.0934" y2="199.0934"/><text fill="#000000" font-family="sans-serif" font-size="12.1387" lengthAdjust="spacing" textLength="110.9827" x="344.2197" y="191.7116">Waiting For Resolve</text></g><g id="rejectedOnAdvResolve"><rect fill="#F1F1F1" height="43.3526" rx="10.8382" ry="10.8382" style="stroke:#181818;stroke-width:0.43352601156069365;" width="212.4277" x="68.0636" y="315.6069"/><line style="stroke:#181818;stroke-width:0.43352601156069365;" x1="68.0636" x2="280.4913" y1="340.4229" y2="340.4229"/><text fill="#000000" font-family="sans-serif" font-size="12.1387" lengthAdjust="spacing" textLength="195.0867" x="76.7341" y="333.0411">Rejected on Advertisement Resolve</text></g><ellipse cx="252.3121" cy="13.8728" fill="#222222" rx="8.6705" ry="8.6705" style="stroke:none;stroke-width:0.8670520231213873;"/><g id="Rejected"><rect fill="#F1F1F1" height="43.3526" rx="10.8382" ry="10.8382" style="stroke:#181818;stroke-width:0.43352601156069365;" width="65.896" x="364.1618" y="315.6069"/><line style="stroke:#181818;stroke-width:0.43352601156069365;" x1="364.1618" x2="430.0578" y1="340.4229" y2="340.4229"/><text fill="#000000" font-family="sans-serif" font-size="12.1387" lengthAdjust="spacing" textLength="48.5549" x="372.8324" y="333.0411">Rejected</text></g><g id="Accepted"><rect fill="#F1F1F1" height="43.3526" rx="10.8382" ry="10.8382" style="stroke:#181818;stroke-width:0.43352601156069365;" width="68.4971" x="484.2486" y="315.6069"/><line style="stroke:#181818;stroke-width:0.43352601156069365;" x1="484.2486" x2="552.7457" y1="340.4229" y2="340.4229"/><text fill="#000000" font-family="sans-serif" font-size="12.1387" lengthAdjust="spacing" textLength="51.1561" x="492.9191" y="333.0411">Accepted</text></g><!--link *start* to waitForConfirmation--><g id="link_*start*_waitForConfirmation"><path d="M247.1012,21.1561 C227.8092,44.896 159.8497,128.5318 125.6965,170.5751 " fill="none" id="*start*-to-waitForConfirmation" style="stroke:#181818;stroke-width:0.8670520231213873;"/><polygon fill="#181818" points="122.896,174.026,130.5085,170.1567,125.6297,170.6614,125.125,165.7826,122.896,174.026" style="stroke:#181818;stroke-width:0.8670520231213873;"/><text fill="#000000" font-family="sans-serif" font-size="11.2717" lengthAdjust="spacing" textLength="93.6416" x="202.8902" y="88.4639">Odpov&#283;&#271; vytvo&#345;ena</text><text fill="#000000" font-family="sans-serif" font-size="11.2717" lengthAdjust="spacing" textLength="81.5029" x="208.9595" y="103.4561">neregistrovan&#253;m</text><text fill="#000000" font-family="sans-serif" font-size="11.2717" lengthAdjust="spacing" textLength="52.8902" x="223.2659" y="118.4483">u&#382;ivatelem</text></g><!--link *start* to waitingForResolve--><g id="link_*start*_waitingForResolve"><path d="M257.8526,21.052 C267.4509,32.0202 287.7139,55.3266 304.3353,75.4335 C331.2746,108.026 361.5867,146.341 380.6618,170.6705 " fill="none" id="*start*-to-waitingForResolve" style="stroke:#181818;stroke-width:0.8670520231213873;"/><polygon fill="#181818" points="383.3931,174.1561,381.3004,165.877,380.7152,170.7467,375.8454,170.1616,383.3931,174.1561" style="stroke:#181818;stroke-width:0.8670520231213873;"/><text fill="#000000" font-family="sans-serif" font-size="11.2717" lengthAdjust="spacing" textLength="93.6416" x="341.6185" y="88.4639">Odpov&#283;&#271; vytvo&#345;ena</text><text fill="#000000" font-family="sans-serif" font-size="11.2717" lengthAdjust="spacing" textLength="69.3642" x="353.7572" y="103.4561">registrovan&#253;m</text><text fill="#000000" font-family="sans-serif" font-size="11.2717" lengthAdjust="spacing" textLength="52.8902" x="361.9942" y="118.4483">u&#382;ivatelem</text></g><!--link waitForConfirmation to waitingForResolve--><g id="link_waitForConfirmation_waitingForResolve"><path d="M205.6994,195.9538 C246.9624,195.9538 293.7572,195.9538 331.0491,195.9538 " fill="none" id="waitForConfirmation-to-waitingForResolve" style="stroke:#181818;stroke-width:0.8670520231213873;"/><polygon fill="#181818" points="335.5491,195.9538,327.7457,192.4855,331.2139,195.9538,327.7457,199.422,335.5491,195.9538" style="stroke:#181818;stroke-width:0.8670520231213873;"/><text fill="#000000" font-family="sans-serif" font-size="11.2717" lengthAdjust="spacing" textLength="97.9769" x="221.5318" y="175.1691">Respondent potvrdil</text><text fill="#000000" font-family="sans-serif" font-size="11.2717" lengthAdjust="spacing" textLength="37.2832" x="251.8786" y="190.1613">kontakt</text></g><!--link waitingForResolve to Rejected--><g id="link_waitingForResolve_Rejected"><path d="M396.8844,217.7601 C395.922,225.8324 394.9769,235.1532 394.5087,243.6416 C393.2428,266.4277 394.1792,292.4046 395.263,311.0636 " fill="none" id="waitingForResolve-to-Rejected" style="stroke:#181818;stroke-width:0.8670520231213873;"/><polygon fill="#181818" points="395.5231,315.3988,398.5177,307.4017,395.2635,311.0714,391.5938,307.8171,395.5231,315.3988" style="stroke:#181818;stroke-width:0.8670520231213873;"/><text fill="#000000" font-family="sans-serif" font-size="11.2717" lengthAdjust="spacing" textLength="84.9711" x="395.3757" y="264.0419">Inzerent odpov&#283;&#271;</text><text fill="#000000" font-family="sans-serif" font-size="11.2717" lengthAdjust="spacing" textLength="35.5491" x="420.0867" y="279.0341">nep&#345;ijal</text></g><!--link waitingForResolve to Accepted--><g id="link_waitingForResolve_Accepted"><path d="M451.4393,217.6474 C463.604,224.4711 475.6387,233.0896 484.6821,243.6416 C501.1647,262.8902 509.8873,290.8353 514.3179,311.0289 " fill="none" id="waitingForResolve-to-Accepted" style="stroke:#181818;stroke-width:0.8670520231213873;"/><polygon fill="#181818" points="515.2457,315.4682,517.0601,307.1237,514.3669,311.2229,510.2677,308.5297,515.2457,315.4682" style="stroke:#181818;stroke-width:0.8670520231213873;"/><text fill="#000000" font-family="sans-serif" font-size="11.2717" lengthAdjust="spacing" textLength="84.9711" x="508.9595" y="264.0419">Inzerent odpov&#283;&#271;</text><text fill="#000000" font-family="sans-serif" font-size="11.2717" lengthAdjust="spacing" textLength="23.4104" x="539.7399" y="279.0341">p&#345;ijal</text></g><!--link waitingForResolve to rejectedOnAdvResolve--><g id="link_waitingForResolve_rejectedOnAdvResolve"><path d="M337.3353,217.6994 C319.396,224.8266 300.1821,233.5751 283.526,243.6416 C266.2543,254.0809 227.0029,288.5376 200.5665,312.3902 " fill="none" id="waitingForResolve-to-rejectedOnAdvResolve" style="stroke:#181818;stroke-width:0.8670520231213873;"/><polygon fill="#181818" points="197.0896,315.5376,205.2044,312.878,200.3058,312.6306,200.5532,307.7321,197.0896,315.5376" style="stroke:#181818;stroke-width:0.8670520231213873;"/><text fill="#000000" font-family="sans-serif" font-size="11.2717" lengthAdjust="spacing" textLength="101.4451" x="284.3931" y="256.672">Inzer&#225;t byl ukon&#269;en,</text><text fill="#000000" font-family="sans-serif" font-size="11.2717" lengthAdjust="spacing" textLength="70.2312" x="300" y="271.6642">nebo ozna&#269;en</text><text fill="#000000" font-family="sans-serif" font-size="11.2717" lengthAdjust="spacing" textLength="59.8266" x="305.2023" y="286.6564">za vy&#345;e&#353;en&#253;</text></g><!--link waitForConfirmation to rejectedOnAdvResolve--><g id="link_waitForConfirmation_rejectedOnAdvResolve"><path d="M103.7514,217.7081 C102.7977,237.4509 103.9422,267.2861 116.185,289.5954 C120.9538,298.2832 128.0549,305.9566 135.6763,312.4509 " fill="none" id="waitForConfirmation-to-rejectedOnAdvResolve" style="stroke:#181818;stroke-width:0.8670520231213873;"/><polygon fill="#181818" points="139.448,315.5376,135.5924,307.9181,136.0883,312.7977,131.2086,313.2936,139.448,315.5376" style="stroke:#181818;stroke-width:0.8670520231213873;"/><text fill="#000000" font-family="sans-serif" font-size="11.2717" lengthAdjust="spacing" textLength="101.4451" x="117.052" y="256.672">Inzer&#225;t byl ukon&#269;en,</text><text fill="#000000" font-family="sans-serif" font-size="11.2717" lengthAdjust="spacing" textLength="70.2312" x="132.659" y="271.6642">nebo ozna&#269;en</text><text fill="#000000" font-family="sans-serif" font-size="11.2717" lengthAdjust="spacing" textLength="59.8266" x="137.8613" y="286.6564">za vy&#345;e&#353;en&#253;</text></g><!--SRC=[hP6nRi8m48RtFCM9fLBL5AOE34YeKgLEI2mTcWuckOB1FaVsOGJlK7L6dNYGTe6yL-sAe5OaJ9rid-_x_T_lgnbpwVhTRga4yLAhszpehcF1c1PIJAtGIU9oeH3kUZrOoO9doSyrT9w4P4bJU30MxWsno3ckhz9gmT9G1uI3LMWA3R_hJVmOdL4UJqYeX_AnMWDZd6FEM80X61OUBKk76ed_uFRODQBGKoiyNxz0cgQ39Z_GXr5H6d_uEBo3NxCtrHP9P4HeSIeTM-C5xJzrHilgI_hWHQ4-IWxExRRgNL9hyjKY7dQbeIBENHhsjf0geqNyW0Kdvq3qU4gk3u-q2MC5rjGUuw1bjPLpeLhmOPvZsOvVXfl-enRQxnWcQmNBOF_mXdGJlKmCc0s9UCve8qA48RzgXo6qvfZ- -v7a6m00]--></g></svg>