<?xml version="1.0" encoding="UTF-8" standalone="no"?>
<svg
   id="Layer_1"
   data-name="Layer 1"
   viewBox="0 0 122.88 50.12"
   version="1.1"
   sodipodi:docname="send-message-icon2.svg"
   inkscape:version="1.2.1 (9c6d41e410, 2022-07-14)"
   xmlns:inkscape="http://www.inkscape.org/namespaces/inkscape"
   xmlns:sodipodi="http://sodipodi.sourceforge.net/DTD/sodipodi-0.dtd"
   xmlns="http://www.w3.org/2000/svg"
   xmlns:svg="http://www.w3.org/2000/svg"
   xmlns:rdf="http://www.w3.org/1999/02/22-rdf-syntax-ns#"
   xmlns:cc="http://creativecommons.org/ns#"
   xmlns:dc="http://purl.org/dc/elements/1.1/">
  <defs
     id="defs9" />
  <sodipodi:namedview
     id="namedview7"
     pagecolor="#ffffff"
     bordercolor="#000000"
     borderopacity="0.25"
     inkscape:showpageshadow="2"
     inkscape:pageopacity="0.0"
     inkscape:pagecheckerboard="0"
     inkscape:deskcolor="#d1d1d1"
     showgrid="false"
     inkscape:zoom="12.231446"
     inkscape:cx="61.39912"
     inkscape:cy="25.099241"
     inkscape:window-width="1920"
     inkscape:window-height="1017"
     inkscape:window-x="1912"
     inkscape:window-y="-8"
     inkscape:window-maximized="1"
     inkscape:current-layer="Layer_1" />
  <title
     id="title2">send-message</title>
  <path
     d="M54.86,0h63.69a4.29,4.29,0,0,1,4.32,4.67l-3.09,40.78a5,5,0,0,1-3.45,4.4,4.89,4.89,0,0,1-1.57.27H51.07a4.29,4.29,0,0,1-4.32-4.67L49.84,4.67a5.13,5.13,0,0,1,5-4.67ZM39.2,6v5.24H2.62A2.62,2.62,0,1,1,2.62,6Zm-3,32.88v5.23H21.91a2.62,2.62,0,1,1,0-5.23Zm1.5-16.44v5.23H11.47a2.62,2.62,0,1,1,0-5.23Zm13.52,20L73.65,22.88,53.89,7.21,51.23,42.46ZM76.77,25.55,53.57,45.87h59.19L93.6,25.57l-7.33,5.87a2.26,2.26,0,0,1-1.38.49,2,2,0,0,1-1.32-.47l-6.8-5.91Zm20.29-2.72L115.75,42.6,118.44,7,97.06,22.83ZM57.2,4.25l28,22.82L115.39,4.25Z"
     id="path4" />
  <metadata
     id="metadata115">
    <rdf:RDF>
      <cc:Work
         rdf:about="">
        <dc:title>send-message</dc:title>
      </cc:Work>
    </rdf:RDF>
  </metadata>
</svg>
